<svg id="Layer_1" data-name="Layer 1" xmlns="http://www.w3.org/2000/svg" viewBox="0 0 512 512"><title>security_safe</title><path d="M256,512,32,384V128L256,0,480,128V384ZM39.88,379.43,256,502.9,472.12,379.43V132.57L256,9.1,39.88,132.57Z" fill="#231f20"/><path d="M296,222l5.66,5.66L247.2,282.18l-26-26,5.66-5.66,20.36,20.36ZM258,348l-2,1.14L254,348c-85-48.7-77.88-146.81-77.8-147.8l.23-2.81,2.72-.73c.59-.16,59-15.9,74-31l2.83-2.84,2.83,2.84c15,15.06,73.4,30.8,74,31l2.72.73.23,2.8C335.86,201.18,343,299.3,258,348Zm69.94-144.38c-11.6-3.25-54.74-16-71.93-29.74-17.19,13.77-60.33,26.49-71.94,29.74-.42,15.69,1.21,94.33,71.94,136.29C326.84,297.88,328.37,219.29,327.94,203.61Z" fill="#231f20"/></svg>